<?xml version="1.0" encoding="UTF-8"?><svg id="Layer_2" xmlns="http://www.w3.org/2000/svg" viewBox="0 0 1188 648"><defs><style>.cls-1{fill-rule:evenodd;stroke-width:0px;}</style></defs><g id="Layer_1-2"><path class="cls-1" d="m450,504h-18v144h126v-18h-108v-126Zm-54,0h-90c-9.94,0-18,8.06-18,18v108c0,9.94,8.06,18,18,18h90c9.94,0,18-8.06,18-18v-108c0-9.94-8.06-18-18-18Zm0,126h-90v-108h90v108Zm-144-126h-90c-9.94,0-18,8.06-18,18v108c0,9.94,8.06,18,18,18h90c9.94,0,18-8.06,18-18v-108c0-9.94-8.06-18-18-18Zm0,126h-90v-108h90v108Zm270-234h36V72h-144v-36h252V0h-288v108h144v288ZM0,522h54v126h18v-126h54v-18H0v18Zm738,126h18v-144h-18v144Zm324-144v18h54v126h18v-126h54v-18h-126Zm-36,0h-90c-9.94,0-18,8.06-18,18v108c0,9.94,8.06,18,18,18h90c9.94,0,18-8.06,18-18v-108c0-9.94-8.06-18-18-18Zm0,126h-90v-108h90v108Zm-324-126h-108v144h18v-54h90c9.94,0,18-8.06,18-18v-54c0-9.94-8.06-18-18-18Zm0,72h-90v-54h90v54Zm-72-288V108h180v144h-144v36h144c19.88,0,36-16.12,36-36V108c0-19.88-16.12-36-36-36h-216v396h36v-180Zm162,216h-18v144h126v-18h-108v-126Z"/></g></svg>